<mxfile host="app.diagrams.net" modified="2024-06-04T05:37:45.684Z" agent="Mozilla/5.0 (Windows NT 10.0; Win64; x64) AppleWebKit/537.36 (KHTML, like Gecko) Chrome/125.0.0.0 Safari/537.36" etag="cvt_ffFMJm_u9YpIdCZG" version="24.4.13" type="github">
  <diagram name="Page-1" id="Q6Punv76jqrEcUIxPhw-">
    <mxGraphModel dx="954" dy="558" grid="1" gridSize="10" guides="1" tooltips="1" connect="1" arrows="1" fold="1" page="1" pageScale="1" pageWidth="827" pageHeight="1169" math="0" shadow="0">
      <root>
        <mxCell id="0" />
        <mxCell id="1" parent="0" />
        <mxCell id="aZHhfLYHZelU2IEFhKMB-3" value="6516(98.7%)" style="ellipse;whiteSpace=wrap;html=1;aspect=fixed;fillColor=#0050ef;strokeColor=#001DBC;fontColor=#ffffff;" vertex="1" parent="1">
          <mxGeometry x="290" y="150" width="250" height="250" as="geometry" />
        </mxCell>
        <mxCell id="aZHhfLYHZelU2IEFhKMB-4" value="85(1.3%)" style="ellipse;whiteSpace=wrap;html=1;aspect=fixed;fillColor=#a20025;fontColor=#ffffff;strokeColor=#6F0000;" vertex="1" parent="1">
          <mxGeometry x="470" y="290" width="60" height="60" as="geometry" />
        </mxCell>
        <mxCell id="aZHhfLYHZelU2IEFhKMB-5" value="&lt;font style=&quot;font-size: 18px;&quot;&gt;&lt;b&gt;PCGs&lt;/b&gt;&lt;/font&gt;" style="text;html=1;align=center;verticalAlign=middle;resizable=0;points=[];autosize=1;strokeColor=none;fillColor=none;" vertex="1" parent="1">
          <mxGeometry x="380" y="413" width="70" height="40" as="geometry" />
        </mxCell>
        <mxCell id="aZHhfLYHZelU2IEFhKMB-6" value="&lt;b&gt;&lt;font style=&quot;font-size: 17px;&quot;&gt;DNGs&lt;/font&gt;&lt;/b&gt;" style="text;html=1;align=center;verticalAlign=middle;resizable=0;points=[];autosize=1;strokeColor=none;fillColor=none;" vertex="1" parent="1">
          <mxGeometry x="525" y="338" width="70" height="30" as="geometry" />
        </mxCell>
        <mxCell id="aZHhfLYHZelU2IEFhKMB-7" value="&lt;font style=&quot;font-size: 26px;&quot;&gt;&lt;i&gt;&lt;u&gt;&lt;b&gt;Set of comparison&lt;/b&gt;&lt;/u&gt;&lt;/i&gt;&lt;/font&gt;" style="text;html=1;align=center;verticalAlign=middle;resizable=0;points=[];autosize=1;strokeColor=none;fillColor=none;" vertex="1" parent="1">
          <mxGeometry x="300" y="493" width="250" height="40" as="geometry" />
        </mxCell>
      </root>
    </mxGraphModel>
  </diagram>
</mxfile>
